# xmcd
#
# Track frame offsets: 
#        150
#        18557
#        35696
#        53668
#        72532
#        90914
#        107567
#        125332
#        140334
#        159431
#        177815
#        198715
#        214575
#        230420
#        249504
#        269005
#        288659
#        308502
#        325918
#
# Disc length: 4568 seconds
#
# Revision: 0
# Processed by: cddbd v1.5.2PL0 Copyright (c) Steve Scherf et al.
# Submitted via: ExactAudioCopy v0.99pb3
#
DISCID=1111d613
DTITLE=Various Artist - ERG Nu Urban Traxx #115
DYEAR=2008
DGENRE=R&B
TTITLE0=Snoop Dogg - Sensual Seduction
TTITLE1=Mary J Blige Ft Busta Rhymes - Work That
TTITLE2=Kanye West Ft Dwele - Flashing Lights
TTITLE3=Hurricane Chris Ft Boxie - Playas Rock
TTITLE4=The Dream - Falsetto
TTITLE5=Unk Ft Baby D - Hit The Dancefloor
TTITLE6=Ne Yo - Go On Girl
TTITLE7=Shawty Lo - They Know
TTITLE8=Chris Brown - With You
TTITLE9=Pitbull Ft Lil Jon - The Anthem
TTITLE10=Erykah Badu - Honey
TTITLE11=Playaz Circle Ft Ludacris - U Can Believe It
TTITLE12=DJ Felli Fel Ft Diddy Akon Luda and Lil' Jon - Get Buck In Here
TTITLE13=Glasses Malone Ft Akon - Certified
TTITLE14=Keyshia Cole - I Remember
TTITLE15=Kirk Franklin - Declaration (This Is It)
TTITLE16=Jordin Sparks Ft Chris Brown - No Air
TTITLE17=Rocko - Umma Do Me
TTITLE18=Cassidy - Innocent (Misunderstood)
EXTD=
EXTT0=
EXTT1=
EXTT2=
EXTT3=
EXTT4=
EXTT5=
EXTT6=
EXTT7=
EXTT8=
EXTT9=
EXTT10=
EXTT11=
EXTT12=
EXTT13=
EXTT14=
EXTT15=
EXTT16=
EXTT17=
EXTT18=
PLAYORDER=
